<svg xmlns="http://www.w3.org/2000/svg" viewBox="0 0 500 500" width="100%" height="100%">
  <defs>
    <linearGradient id="g1" x1="0%" y1="0%" x2="100%" y2="100%">
      <stop offset="0%" stop-color="#ff0a0a" />
      <stop offset="100%" stop-color="#cc0000" />
    </linearGradient>
    <linearGradient id="g2" x1="0%" y1="0%" x2="100%" y2="100%">
      <stop offset="0%" stop-color="#a30000" />
      <stop offset="100%" stop-color="#5c0000" />
    </linearGradient>
    <linearGradient id="g3" x1="100%" y1="0%" x2="0%" y2="100%">
      <stop offset="0%" stop-color="#d60000" />
      <stop offset="100%" stop-color="#8f0000" />
    </linearGradient>
    <linearGradient id="g4" x1="100%" y1="0%" x2="0%" y2="100%">
      <stop offset="0%" stop-color="#7a0000" />
      <stop offset="100%" stop-color="#3d0000" />
    </linearGradient>
    <linearGradient id="g5" x1="50%" y1="0%" x2="50%" y2="100%">
      <stop offset="0%" stop-color="#520000" />
      <stop offset="100%" stop-color="#140000" />
    </linearGradient>
    <linearGradient id="g6" x1="50%" y1="0%" x2="50%" y2="100%">
      <stop offset="0%" stop-color="#2e0000" />
      <stop offset="100%" stop-color="#050000" />
    </linearGradient>
  </defs>

  <polygon points="250,200 250,150 90,90" fill="url(#g1)" />
  <polygon points="250,200 215,220 90,90" fill="url(#g2)" />
  
  <polygon points="250,200 250,150 410,90" fill="url(#g3)" />
  <polygon points="250,200 285,220 410,90" fill="url(#g4)" />
  
  <polygon points="250,200 215,220 250,430" fill="url(#g5)" />
  <polygon points="250,200 285,220 250,430" fill="url(#g6)" />
</svg>
